# xmcd
# 
# Track frame offsets:
#     150
#     20460
#     40112
#     60775
#     80985
#     100222
#     123480
#     145502
#     166795
#     191292
#     208705
#     229337
#     251387
# 
# Disc length: 3646
# 
# Revision: 1
# Processed by: cddbd v1.5.2PL0 Copyright (c) Steve Scherf et al.
# Submitted via: fre:ac v1.0.17
# 
DISCID=a20e3c0d
DTITLE=Gerald LeVert - The G Spot
DYEAR=2002
DGENRE=R&B
TTITLE0=Too Much Room (feat. Mystikal)
TTITLE1=Since You Ain't Around
TTITLE2=Wilding Me Out
TTITLE3=Funny
TTITLE4=The Top Of My Head
TTITLE5=The G Spot
TTITLE6=Oh What A Night (feat. Roy Ayers)
TTITLE7=Closure
TTITLE8=Raindrops
TTITLE9=Your Smile
TTITLE10=Backbone
TTITLE11=Catchin' Feelings
TTITLE12=All That Matters
EXTD=
EXTT0=
EXTT1=
EXTT2=
EXTT3=
EXTT4=
EXTT5=
EXTT6=
EXTT7=
EXTT8=
EXTT9=
EXTT10=
EXTT11=
EXTT12=
PLAYORDER=
